<mxfile host="65bd71144e">
    <diagram name="Sayfa -1" id="hMgh-CmjPnYQUTgDJ7Yv">
        <mxGraphModel dx="752" dy="497" grid="1" gridSize="10" guides="1" tooltips="1" connect="1" arrows="1" fold="1" page="1" pageScale="1" pageWidth="827" pageHeight="1169" math="0" shadow="0">
            <root>
                <mxCell id="0"/>
                <mxCell id="1" parent="0"/>
                <mxCell id="9loqa1Nu5ImPtT5751Ts-6" style="edgeStyle=orthogonalEdgeStyle;rounded=0;orthogonalLoop=1;jettySize=auto;html=1;entryX=0.5;entryY=0;entryDx=0;entryDy=0;" parent="1" source="9loqa1Nu5ImPtT5751Ts-1" target="9loqa1Nu5ImPtT5751Ts-3" edge="1">
                    <mxGeometry relative="1" as="geometry"/>
                </mxCell>
                <mxCell id="9loqa1Nu5ImPtT5751Ts-1" value="Web Socket Modulünü başlat" style="rounded=0;whiteSpace=wrap;html=1;" parent="1" vertex="1">
                    <mxGeometry x="342" y="50" width="120" height="60" as="geometry"/>
                </mxCell>
                <mxCell id="9loqa1Nu5ImPtT5751Ts-2" value="Application.py" style="text;html=1;strokeColor=none;fillColor=none;align=center;verticalAlign=middle;whiteSpace=wrap;rounded=0;" parent="1" vertex="1">
                    <mxGeometry x="354" width="96" height="30" as="geometry"/>
                </mxCell>
                <mxCell id="9loqa1Nu5ImPtT5751Ts-7" style="edgeStyle=orthogonalEdgeStyle;rounded=0;orthogonalLoop=1;jettySize=auto;html=1;entryX=0.5;entryY=0;entryDx=0;entryDy=0;" parent="1" source="9loqa1Nu5ImPtT5751Ts-3" target="9loqa1Nu5ImPtT5751Ts-4" edge="1">
                    <mxGeometry relative="1" as="geometry"/>
                </mxCell>
                <mxCell id="9loqa1Nu5ImPtT5751Ts-3" value="Flask Modulünü başlat" style="rounded=0;whiteSpace=wrap;html=1;" parent="1" vertex="1">
                    <mxGeometry x="342" y="140" width="120" height="60" as="geometry"/>
                </mxCell>
                <mxCell id="9loqa1Nu5ImPtT5751Ts-8" style="edgeStyle=orthogonalEdgeStyle;rounded=0;orthogonalLoop=1;jettySize=auto;html=1;entryX=0.5;entryY=0;entryDx=0;entryDy=0;" parent="1" source="9loqa1Nu5ImPtT5751Ts-4" target="9loqa1Nu5ImPtT5751Ts-5" edge="1">
                    <mxGeometry relative="1" as="geometry"/>
                </mxCell>
                <mxCell id="9loqa1Nu5ImPtT5751Ts-4" value="network'ü başlat (7saniye bekleme var sonrasında)" style="rounded=0;whiteSpace=wrap;html=1;" parent="1" vertex="1">
                    <mxGeometry x="342" y="230" width="120" height="60" as="geometry"/>
                </mxCell>
                <mxCell id="9loqa1Nu5ImPtT5751Ts-11" style="edgeStyle=orthogonalEdgeStyle;rounded=0;orthogonalLoop=1;jettySize=auto;html=1;entryX=0.5;entryY=0;entryDx=0;entryDy=0;entryPerimeter=0;" parent="1" source="9loqa1Nu5ImPtT5751Ts-5" target="9loqa1Nu5ImPtT5751Ts-9" edge="1">
                    <mxGeometry relative="1" as="geometry">
                        <mxPoint x="240" y="420" as="targetPoint"/>
                    </mxGeometry>
                </mxCell>
                <mxCell id="9loqa1Nu5ImPtT5751Ts-12" style="edgeStyle=orthogonalEdgeStyle;rounded=0;orthogonalLoop=1;jettySize=auto;html=1;entryX=0.573;entryY=-0.053;entryDx=0;entryDy=0;entryPerimeter=0;" parent="1" source="9loqa1Nu5ImPtT5751Ts-5" target="9loqa1Nu5ImPtT5751Ts-10" edge="1">
                    <mxGeometry relative="1" as="geometry"/>
                </mxCell>
                <mxCell id="9loqa1Nu5ImPtT5751Ts-5" value="Raspberry pi wifiye bağlandı mı?" style="rounded=0;whiteSpace=wrap;html=1;" parent="1" vertex="1">
                    <mxGeometry x="342" y="320" width="120" height="60" as="geometry"/>
                </mxCell>
                <mxCell id="9loqa1Nu5ImPtT5751Ts-9" value="https://momentum.visi.help/ sayfasına git" style="rounded=0;whiteSpace=wrap;html=1;" parent="1" vertex="1">
                    <mxGeometry x="140" y="430" width="180" height="60" as="geometry"/>
                </mxCell>
                <mxCell id="9loqa1Nu5ImPtT5751Ts-16" style="edgeStyle=orthogonalEdgeStyle;rounded=0;orthogonalLoop=1;jettySize=auto;html=1;" parent="1" source="9loqa1Nu5ImPtT5751Ts-10" edge="1">
                    <mxGeometry relative="1" as="geometry">
                        <mxPoint x="550" y="540" as="targetPoint"/>
                    </mxGeometry>
                </mxCell>
                <mxCell id="9loqa1Nu5ImPtT5751Ts-10" value="Wifi seçici ekranını getir" style="rounded=0;whiteSpace=wrap;html=1;" parent="1" vertex="1">
                    <mxGeometry x="490" y="430" width="120" height="60" as="geometry"/>
                </mxCell>
                <mxCell id="9loqa1Nu5ImPtT5751Ts-13" value="Evet" style="text;html=1;strokeColor=none;fillColor=none;align=center;verticalAlign=middle;whiteSpace=wrap;rounded=0;" parent="1" vertex="1">
                    <mxGeometry x="220" y="310" width="60" height="30" as="geometry"/>
                </mxCell>
                <mxCell id="9loqa1Nu5ImPtT5751Ts-15" value="Hayır" style="text;html=1;strokeColor=none;fillColor=none;align=center;verticalAlign=middle;whiteSpace=wrap;rounded=0;" parent="1" vertex="1">
                    <mxGeometry x="510" y="310" width="60" height="30" as="geometry"/>
                </mxCell>
                <mxCell id="9loqa1Nu5ImPtT5751Ts-19" style="edgeStyle=orthogonalEdgeStyle;rounded=0;orthogonalLoop=1;jettySize=auto;html=1;entryX=0.5;entryY=0;entryDx=0;entryDy=0;" parent="1" source="9loqa1Nu5ImPtT5751Ts-17" target="9loqa1Nu5ImPtT5751Ts-18" edge="1">
                    <mxGeometry relative="1" as="geometry"/>
                </mxCell>
                <mxCell id="9loqa1Nu5ImPtT5751Ts-17" value="Kullanıcı ok yönleri ile uygun wifi adını seçer" style="rounded=0;whiteSpace=wrap;html=1;" parent="1" vertex="1">
                    <mxGeometry x="490" y="540" width="120" height="60" as="geometry"/>
                </mxCell>
                <mxCell id="9loqa1Nu5ImPtT5751Ts-20" style="edgeStyle=orthogonalEdgeStyle;rounded=0;orthogonalLoop=1;jettySize=auto;html=1;" parent="1" source="9loqa1Nu5ImPtT5751Ts-18" edge="1">
                    <mxGeometry relative="1" as="geometry">
                        <mxPoint x="550" y="740" as="targetPoint"/>
                    </mxGeometry>
                </mxCell>
                <mxCell id="9loqa1Nu5ImPtT5751Ts-18" value="şifre girme ekranını getir. Klavye olacak" style="rounded=0;whiteSpace=wrap;html=1;" parent="1" vertex="1">
                    <mxGeometry x="490" y="640" width="120" height="60" as="geometry"/>
                </mxCell>
                <mxCell id="9loqa1Nu5ImPtT5751Ts-22" style="edgeStyle=orthogonalEdgeStyle;rounded=0;orthogonalLoop=1;jettySize=auto;html=1;entryX=0.5;entryY=1;entryDx=0;entryDy=0;" parent="1" source="9loqa1Nu5ImPtT5751Ts-21" target="9loqa1Nu5ImPtT5751Ts-9" edge="1">
                    <mxGeometry relative="1" as="geometry">
                        <mxPoint x="390" y="840" as="targetPoint"/>
                    </mxGeometry>
                </mxCell>
                <mxCell id="9loqa1Nu5ImPtT5751Ts-23" style="edgeStyle=orthogonalEdgeStyle;rounded=0;orthogonalLoop=1;jettySize=auto;html=1;" parent="1" source="9loqa1Nu5ImPtT5751Ts-21" edge="1">
                    <mxGeometry relative="1" as="geometry">
                        <mxPoint x="710" y="840" as="targetPoint"/>
                    </mxGeometry>
                </mxCell>
                <mxCell id="9loqa1Nu5ImPtT5751Ts-21" value="Wifi bağlandı mı?" style="rhombus;whiteSpace=wrap;html=1;" parent="1" vertex="1">
                    <mxGeometry x="495" y="740" width="110" height="80" as="geometry"/>
                </mxCell>
                <mxCell id="9loqa1Nu5ImPtT5751Ts-24" value="Evet" style="text;html=1;strokeColor=none;fillColor=none;align=center;verticalAlign=middle;whiteSpace=wrap;rounded=0;" parent="1" vertex="1">
                    <mxGeometry x="390" y="740" width="60" height="30" as="geometry"/>
                </mxCell>
                <mxCell id="9loqa1Nu5ImPtT5751Ts-25" value="Hayır" style="text;html=1;strokeColor=none;fillColor=none;align=center;verticalAlign=middle;whiteSpace=wrap;rounded=0;" parent="1" vertex="1">
                    <mxGeometry x="660" y="740" width="60" height="30" as="geometry"/>
                </mxCell>
                <mxCell id="9loqa1Nu5ImPtT5751Ts-27" style="edgeStyle=orthogonalEdgeStyle;rounded=0;orthogonalLoop=1;jettySize=auto;html=1;entryX=1.013;entryY=0.387;entryDx=0;entryDy=0;entryPerimeter=0;" parent="1" target="9loqa1Nu5ImPtT5751Ts-10" edge="1">
                    <mxGeometry relative="1" as="geometry">
                        <mxPoint x="860" y="410" as="targetPoint"/>
                        <mxPoint x="770" y="880" as="sourcePoint"/>
                        <Array as="points">
                            <mxPoint x="770" y="870"/>
                            <mxPoint x="861" y="870"/>
                            <mxPoint x="861" y="453"/>
                        </Array>
                    </mxGeometry>
                </mxCell>
                <mxCell id="9loqa1Nu5ImPtT5751Ts-26" value="Şifre yanlış lütfen tekrar deneyin ekranı 5-10 saniye" style="rounded=0;whiteSpace=wrap;html=1;" parent="1" vertex="1">
                    <mxGeometry x="650" y="840" width="120" height="60" as="geometry"/>
                </mxCell>
                <mxCell id="9loqa1Nu5ImPtT5751Ts-28" value="1: Wifi seçimini aç/kapat&#10;2: Dil/klavye seçimini aç/kapat&#10;3: Tarayıcıyı yenile&#10;4: Tarayıcıdaki tüm verileri (belirteçler, çerezler vb.) Silin ve yenileyin.&#10;5: Ekran yönünü yataydan dikeye ve geriye doğru değiştirin." style="text;html=1;strokeColor=none;fillColor=none;align=center;verticalAlign=middle;whiteSpace=wrap;rounded=0;" parent="1" vertex="1">
                    <mxGeometry x="80" y="930" width="430" height="110" as="geometry"/>
                </mxCell>
            </root>
        </mxGraphModel>
    </diagram>
    <diagram id="UKe2l2q9yUGeBBvpHbRU" name="Page-2">
        <mxGraphModel dx="752" dy="497" grid="1" gridSize="10" guides="1" tooltips="1" connect="1" arrows="1" fold="1" page="1" pageScale="1" pageWidth="850" pageHeight="1100" math="0" shadow="0">
            <root>
                <mxCell id="0"/>
                <mxCell id="1" parent="0"/>
                <mxCell id="ggxniW4oCTk3z53TvS50-1" value="" style="rounded=0;whiteSpace=wrap;html=1;" vertex="1" parent="1">
                    <mxGeometry x="130" y="80" width="500" height="360" as="geometry"/>
                </mxCell>
                <mxCell id="ggxniW4oCTk3z53TvS50-2" value="" style="html=1;verticalLabelPosition=bottom;align=center;labelBackgroundColor=#ffffff;verticalAlign=top;strokeWidth=2;strokeColor=#0080F0;shadow=0;dashed=0;shape=mxgraph.ios7.icons.wifi;pointerEvents=1" vertex="1" parent="1">
                    <mxGeometry x="340" y="110" width="80" height="60" as="geometry"/>
                </mxCell>
                <mxCell id="ggxniW4oCTk3z53TvS50-4" value="Please select the wifi you will connect to." style="text;html=1;strokeColor=none;fillColor=none;align=center;verticalAlign=middle;whiteSpace=wrap;rounded=0;" vertex="1" parent="1">
                    <mxGeometry x="265" y="190" width="230" height="30" as="geometry"/>
                </mxCell>
                <mxCell id="ggxniW4oCTk3z53TvS50-5" value="" style="rounded=0;whiteSpace=wrap;html=1;" vertex="1" parent="1">
                    <mxGeometry x="260" y="240" width="250" height="40" as="geometry"/>
                </mxCell>
                <mxCell id="ggxniW4oCTk3z53TvS50-6" value="" style="rounded=0;whiteSpace=wrap;html=1;strokeColor=#0000FF;strokeWidth=5;" vertex="1" parent="1">
                    <mxGeometry x="260" y="290" width="250" height="40" as="geometry"/>
                </mxCell>
                <mxCell id="ggxniW4oCTk3z53TvS50-7" value="" style="rounded=0;whiteSpace=wrap;html=1;" vertex="1" parent="1">
                    <mxGeometry x="260" y="340" width="250" height="40" as="geometry"/>
                </mxCell>
            </root>
        </mxGraphModel>
    </diagram>
</mxfile>